<?xml version="1.0" encoding="UTF-8"?>
<svg width="495px" height="459px" viewBox="0 0 495 459" version="1.1" xmlns="http://www.w3.org/2000/svg" xmlns:xlink="http://www.w3.org/1999/xlink">
    <!-- Generator: Sketch 53.2 (72643) - https://sketchapp.com -->
    <title>comment</title>
    <desc>Created with Sketch.</desc>
    <g id="Page-1" stroke="none" stroke-width="1" fill="none" fill-rule="evenodd">
        <g id="comment" fill="#000000" fill-rule="nonzero">
            <g id="Group">
                <path d="M437.1,0 L56.9,0 C25.4,0 0,25.2 0,56.7 L0,300.5 C0,331.9 25.4,357 56.9,357 L66,357 L66,441.3 C66,448 70,454.1 76.1,456.8 C78.3,457.8 80.7,458.3 83,458.3 C87.1,458.3 91.2,456.5 94.4,453.7 L200.9,357 L437.2,357 C468.6,357 494.1,331.9 494.1,300.5 L494.1,56.7 C494,25.2 468.6,0 437.1,0 Z M460,300.5 C460,313.2 449.8,323 437.1,323 L194.3,323 C190.1,323 186,324.8 182.9,327.6 L100,403 L100,340.5 C100,331.1 92.4,323 83,323 L56.9,323 C44.2,323 34,313.2 34,300.5 L34,56.7 C34,44 44.2,34 56.9,34 L437.2,34 C449.9,34 460.1,44 460.1,56.7 L460.1,300.5 L460,300.5 Z" id="Shape"></path>
                <path d="M372.6,222 L121.4,222 C112,222 104.4,229.6 104.4,239 C104.4,248.4 112,256 121.4,256 L372.5,256 C381.9,256 389.5,248.4 389.5,239 C389.5,229.6 382,222 372.6,222 Z" id="Path"></path>
                <path d="M372.6,156 L121.4,156 C112,156 104.4,163.6 104.4,173 C104.4,182.4 112,190 121.4,190 L372.5,190 C381.9,190 389.5,182.4 389.5,173 C389.5,163.6 382,156 372.6,156 Z" id="Path"></path>
                <path d="M121.4,123 L217.3,123 C226.7,123 234.3,115.4 234.3,106 C234.3,96.6 226.7,89 217.3,89 L121.4,89 C112,89 104.4,96.6 104.4,106 C104.4,115.4 112,123 121.4,123 Z" id="Path"></path>
            </g>
        </g>
    </g>
</svg>