<?xml version="1.0" encoding="UTF-8"?>
<svg width="52px" height="80px" viewBox="0 0 52 80" version="1.1" xmlns="http://www.w3.org/2000/svg" xmlns:xlink="http://www.w3.org/1999/xlink">
    <!-- Generator: Sketch 53.2 (72643) - https://sketchapp.com -->
    <title>highlight</title>
    <desc>Created with Sketch.</desc>
    <g id="Page-1" stroke="none" stroke-width="1" fill="none" fill-rule="evenodd">
        <g id="highlight" transform="translate(0.000000, -1.000000)" fill="#000000" fill-rule="nonzero">
            <g id="Group" transform="translate(0.000000, 0.637820)">
                <path d="M31.095068,2.8601 C21.633908,18.37078 10.998908,34.23229 3.075342,49.0363 C2.695984,49.4966 2.782834,49.7113 2.826829,50.258 C3.347528,54.5041 4.711741,58.335 5.311954,62.7262 C3.53108,65.8845 1.75654,69.0462 0,72.2183 C3.155096,72.8791 7.171592,73.7692 9.911374,74.1451 C11.085936,72.4285 12.791552,69.487 13.792442,67.7072 C15.038366,67.3549 22.054448,65.3866 25.721038,63.7913 C26.301688,63.6488 26.345028,63.378 26.652958,62.9455 C35.450178,47.1276 43.285568,30.79022 51.504208,14.76439 C52.525528,12.36527 51.975098,10.14961 49.795638,8.90628 C45.639598,6.45962 41.490308,3.99971 37.338948,1.54446 C35.021958,0.37446 32.722518,0.64424 31.095068,2.8601 L31.095068,2.8601 Z M34.760628,4.80243 C39.166678,7.11017 44.250728,10.29865 48.149138,12.60282 C39.978508,28.21684 32.075868,44.6644 24.820078,57.9958 L8.10767,48.2531 C16.895996,32.73852 26.647568,17.65709 34.760628,4.80243 Z M7.26894,52.4196 L21.869048,60.9093 C18.799346,62.0087 15.40073,63.0432 13.637072,63.5721 L9.163848,60.9719 C8.638995,57.7382 7.817688,54.9869 7.26894,52.4196 L7.26894,52.4196 Z M9.474488,63.4781 L11.089819,64.3866 C10.058271,66.1777 9.079043,68.0191 8.076606,69.8062 L6.150634,69.3989 C7.523618,66.9636 8.337141,65.5093 9.474488,63.4781 L9.474488,63.4781 Z M0.062078,75.8523 L0.062078,79.8622 L49.764568,79.8622 L49.764568,75.8523 L0.062078,75.8523 Z" id="Shape"></path>
            </g>
        </g>
    </g>
</svg>