<?xml version="1.0" encoding="UTF-8"?>
<svg width="205px" height="123px" viewBox="0 0 205 123" version="1.1" xmlns="http://www.w3.org/2000/svg" xmlns:xlink="http://www.w3.org/1999/xlink">
    <!-- Generator: Sketch 53.2 (72643) - https://sketchapp.com -->
    <title>logo</title>
    <desc>Created with Sketch.</desc>
    <g id="Page-1" stroke="none" stroke-width="1" fill="none" fill-rule="evenodd">
        <g id="logo" transform="translate(-2.000000, 0.000000)">
            <g id="Group">
                <g id="Group-2" transform="translate(88.000000, 0.000000)" fill-rule="nonzero">
                    <path d="M93.8236688,9.10407899 C91.9157489,8.01085494 89.647309,7.71513598 87.5192963,8.28115034 C85.393984,8.84850272 83.5832829,10.228079 82.4855201,12.1174691 L81.102852,14.5019549 C79.7890473,13.7539596 78.1106718,14.1941929 77.3423725,15.489469 L70.3183106,27.3543594 L67.9121438,25.9841499 C67.2748202,25.61885 66.5159732,25.5198308 65.8057353,25.7098405 C65.0941476,25.9011882 64.4892303,26.3641689 64.1233092,26.9984262 C63.3739138,28.3084215 63.8303025,29.9730117 65.1468075,30.7250213 L67.5529743,32.0952308 L44.0476161,72.4615493 L38.24014,87.8362632 L35.4748037,92.9598297 C33.8558397,95.7510965 34.0286732,99.2207773 35.9176896,101.83943 L29.695683,109.402344 L27.953845,105.073606 C27.1679928,103.144072 25.34919,101.822034 23.2576345,101.660125 C21.1647285,101.496878 19.1595897,102.521858 18.0807304,104.305539 L17.0855875,105.97682 L16.1458053,95.015144 C15.9297634,92.4219156 13.9030204,90.3371631 11.2970149,90.024049 C8.68965953,89.7122729 6.22138053,91.260449 5.38826906,93.7278965 L2.13199906,114.556352 C1.65670689,115.986776 -1.01841325,114.843245 0.420965707,115.32496 C0.691018077,115.449402 2.48904991,116.311234 3.6242699,115.880318 C4.38108322,115.593041 6.70191903,108.811935 10.5867773,95.5370013 L11.554915,106.661925 C11.7547538,109.035706 13.4763377,111.009396 15.8176916,111.54731 C18.1590458,112.085225 20.5814154,111.06292 21.8142047,109.019649 L22.837703,107.347029 L24.5525354,111.650344 C25.2803266,113.463463 26.9262959,114.757401 28.8747238,115.045092 C30.8231517,115.332782 32.7783309,114.571406 34.0097697,113.047315 L40.4532189,104.963882 C41.1661571,105.148539 41.9006996,105.240868 42.6379427,105.238191 C45.6017675,105.260939 48.353601,103.714101 49.8550922,101.181087 L52.6204285,96.6048014 L63.1565217,83.9169824 L86.9103281,43.0569069 L89.3164949,44.4271164 C89.957869,44.7910783 90.4250598,45.3918829 90.6154466,46.0997356 C90.807184,46.8022355 90.7072644,47.5515688 90.3399932,48.1818114 L79.2786482,67.173397 C78.8614173,67.7969492 78.7196399,68.5623397 78.8870721,69.2929399 C79.0545049,70.0222017 79.5149441,70.6524446 80.1630698,71.0364777 C80.8003934,71.4031159 81.5592403,71.5021352 82.2694783,71.3121255 C82.981066,71.1207778 83.5859833,70.657797 83.9519043,70.0235397 L95.0132494,51.0319544 C96.1164132,49.1412259 96.4148214,46.8932259 95.8423103,44.7843879 C95.2697993,42.6782258 93.8776793,40.8838402 91.9711095,39.7959689 L89.5649431,38.4257594 L96.4782837,26.559531 C97.2330799,25.2575644 96.7888438,23.59565 95.4831405,22.8329356 L96.8658086,20.4484501 C97.9986784,18.5282833 98.2984364,16.2347883 97.6948696,14.0911596 C97.1237087,11.9863359 95.7302385,10.1919503 93.8236688,9.10407899 Z M87.2694976,14.8578881 C87.6354187,14.2236311 88.2430367,13.759312 88.9573251,13.5706407 C89.6675626,13.3966884 90.4183086,13.4943693 91.0583325,13.8449501 C91.699707,14.207574 92.1668974,14.809717 92.3586348,15.5162313 C92.5341686,16.2200692 92.4355996,16.9640501 92.0818312,17.5983071 L90.699163,19.9827929 L85.8868295,17.2423739 L87.2694976,14.8578881 Z M49.5782886,91.3715109 L48.1956205,90.5766822 L44.1029767,88.2189586 L48.0295382,77.8059015 L56.7400774,82.7929824 L49.5782886,91.3715109 Z M41.2822798,99.2903583 C40.1143034,98.4834868 39.7551336,96.9312963 40.4532189,95.7002487 L41.835887,93.3171012 L46.64687,96.0575202 L45.2642019,98.4139062 C44.876677,99.0802774 44.2258506,99.5539629 43.4683538,99.7212251 C42.7108567,99.8871489 41.9182532,99.7319299 41.2822798,99.2903583 Z M59.8929389,78.2996589 L50.3249833,72.8188208 L72.4476734,34.8356498 L82.015629,40.3164879 L59.8929389,78.2996589 Z M84.7809653,35.5756164 L75.2130097,30.0947784 L80.7436822,20.6130359 L90.3116378,26.0938739 L84.7809653,35.5756164 Z" id="Shape" fill="#1DC1A0"></path>
                    <polygon id="Rectangle" fill="#ECECEC" points="33 -2.27373675e-13 119 -2.27373675e-13 119 101.457101 43.8883243 107.970086 42.7203773 107.14391 38.6264752 103.992895 33 101.457101"></polygon>
                </g>
                <g id="sound" transform="translate(35.000000, 75.000000)" fill="#1DC1A0" fill-rule="nonzero">
                    <path d="M67.9474336,23.4820593 L67.8365344,17.457745 C66.8830615,15.4379074 64.8203042,14.2837144 62.5877824,14.5203239 C60.3529351,14.7557792 58.5831963,16.3127855 58.0785535,18.486131 L53.460024,38.3936519 L49.5263669,4.56194664 C49.2356738,2.0585021 47.2647759,0.188709143 44.7322587,0.0132718067 C42.2020673,-0.162165529 39.9869871,1.4167705 39.3474625,3.85558053 L34.0998735,23.8796748 C33.9591782,24.418683 33.5615101,24.5698824 33.2533756,24.6010454 C32.9452412,24.6310545 32.5254806,24.5641112 32.27781,24.0643457 C31.1406194,21.7721185 28.8360055,20.3016765 26.2627916,20.2278082 C23.6802755,20.1481689 21.3024073,21.4870328 20.0326605,23.7100084 L17.5513054,28.0520826 C17.3210767,28.4537418 16.9524781,28.5322269 16.7536441,28.5426145 C16.5536473,28.5518481 16.1792346,28.5149139 15.9083089,28.1409554 C12.8269635,23.892371 7.8130517,20.9838748 2.53988155,20.9838748 C0.846627185,21.587279 2.84217094e-14,22.5926541 2.84217094e-14,24 C2.85396706e-14,25.4073459 0.738848875,26.4428179 2.21654662,27.1064159 C3.45860004,27.6203092 4.91071556,27.4707738 6.01327671,27.8474713 C8.04790136,28.5426145 9.80463358,29.8402232 11.076992,31.5931467 C12.4641787,33.5056444 14.70484,34.5732729 17.0757318,34.4428492 C19.4454608,34.3158878 21.5593798,33.0162666 22.7291284,30.967574 L25.2104832,26.6255 C25.4628046,26.1834441 25.8697749,26.1291969 26.0895387,26.1338137 C26.3093025,26.140739 26.710459,26.2192241 26.9371993,26.6751304 C28.2302015,29.2812981 30.9487621,30.7725154 33.858017,30.4793505 C36.7684348,30.1850313 39.1253733,28.1778896 39.8614078,25.3674295 L44.0811065,9.26759143 L48.053135,43.4386293 C48.3484792,45.9766997 50.3496093,47.8499551 52.9193349,47.9919209 C53.0239845,47.9976918 53.1263084,48 53.2286323,48 C55.6646393,48 57.7122803,46.3933633 58.2657597,44.004184 L63.3831183,21.9533268 L64.862164,25.0869608 C66.0865629,27.6815867 68.3753336,24.3904093 67.9474336,23.4820593 Z" id="Shape"></path>
                </g>
                <g id="Doctoc" transform="translate(0.000000, 26.000000)" fill="#1DC1A0" font-family="AvenirNext-Bold, Avenir Next" font-size="38" font-weight="bold">
                    <text>
                        <tspan x="0" y="38">Doctoc</tspan>
                    </text>
                </g>
                <path d="M27.5162342,103.420656 C29.8417827,103.420656 31.726562,101.535876 31.726562,99.2103278 C31.726562,96.8847793 29.8417827,95 27.5162342,95 L27.2103278,95 C24.8847793,95 23,96.8847793 23,99.2103278 C23,101.535876 24.8847793,103.420656 27.2103278,103.420656 L27.5162342,103.420656 Z" id="Path" fill="#4A90E2" fill-rule="nonzero"></path>
                <path d="M169.691819,31.8076133 C168.309551,31.0079402 166.666089,30.7916272 165.124366,31.2056563 C163.584599,31.620664 162.272764,32.6297985 161.477446,34.0118524 L160.475717,35.7560596 C159.523879,35.2089149 158.307913,35.5309374 157.751288,36.4784079 L152.662427,45.1573555 L150.919184,44.1550726 C150.457449,43.8878625 149.907672,43.8154318 149.393112,43.9544203 C148.877574,44.0943876 148.439318,44.4330495 148.174212,44.896997 C147.631282,45.8552343 147.961931,47.0728511 148.915726,47.6229323 L150.658969,48.6252152 L133.629577,78.1524296 L129.42212,89.3987481 L127.418662,93.1465421 C126.245739,95.1883021 124.679392,97.2447435 126.047965,99.1602394 L123.082169,102.860001 C121.844293,107.014041 121.695894,109.161209 122.636971,109.301502 C124.048587,109.511942 127.20585,106.506071 128.098015,105.391227 L131.025473,101.927284 C131.541989,102.062357 132.074158,102.129894 132.608283,102.127936 C134.755544,102.144576 136.749219,101.013093 137.837034,99.1602394 L139.840492,95.8127714 L147.473784,86.5318668 L164.683174,56.6434782 L166.426418,57.645761 C166.891087,57.9119924 167.229562,58.3514699 167.367495,58.869251 C167.506407,59.3831167 167.434016,59.9312401 167.167932,60.3922509 L159.1541,74.2842441 C158.851821,74.740361 158.749104,75.30023 158.870407,75.8346505 C158.991711,76.368092 159.325294,76.829103 159.794855,77.1100161 C160.256589,77.3782052 160.806366,77.4506359 161.320926,77.3116473 C161.836464,77.17168 162.274721,76.8330182 162.539827,76.3690707 L170.553658,62.4770777 C171.352889,61.0940449 171.569083,59.4496745 171.154304,57.9070985 C170.739526,56.36648 169.730949,55.0539202 168.349659,54.2581624 L166.606416,53.2558796 L171.615061,44.5759532 C172.161903,43.6235888 171.840058,42.4079292 170.89409,41.8500177 L171.895819,40.1058107 C172.716571,38.7012443 172.933743,37.0235952 172.496465,35.4555705 C172.082664,33.9159309 171.07311,32.6033711 169.691819,31.8076133 Z M164.943389,36.0164181 C165.208495,35.5524709 165.648708,35.2128301 166.166203,35.0748205 C166.680763,34.9475777 167.224671,35.0190294 167.688361,35.2754727 C168.153031,35.5407254 168.491505,35.9811819 168.630417,36.497984 C168.75759,37.0128284 168.686177,37.5570367 168.429876,38.0209839 L167.428147,39.7651911 L163.94166,37.7606254 L164.943389,36.0164181 Z M137.636493,91.9847163 L136.634764,91.4033138 L133.669685,89.6786827 L136.514439,82.0617242 L142.825136,85.7096816 L137.636493,91.9847163 Z M131.626119,97.7772065 C130.779932,97.186995 130.519717,96.0515964 131.025473,95.1511079 L132.027202,93.4078796 L135.51271,95.4124454 L134.510981,97.136098 C134.230223,97.6235363 133.758706,97.9700285 133.209907,98.0923776 C132.661108,98.2137478 132.086875,98.100208 131.626119,97.7772065 Z M145.109352,82.4228986 L138.177465,78.4137671 L154.205129,50.6297809 L161.137015,54.6389124 L145.109352,82.4228986 Z M163.140473,51.1710527 L156.208587,47.1619212 L160.215502,40.2262022 L167.147389,44.2353337 L163.140473,51.1710527 Z" id="Shape" fill="#1DC1A0" fill-rule="nonzero"></path>
            </g>
        </g>
    </g>
</svg>