<?xml version="1.0" encoding="UTF-8"?>
<svg width="676px" height="871px" viewBox="0 0 676 871" version="1.1" xmlns="http://www.w3.org/2000/svg" xmlns:xlink="http://www.w3.org/1999/xlink">
    <!-- Generator: Sketch 53.2 (72643) - https://sketchapp.com -->
    <title>strike</title>
    <desc>Created with Sketch.</desc>
    <g id="Page-1" stroke="none" stroke-width="1" fill="none" fill-rule="evenodd">
        <g id="strike" fill="#000000" fill-rule="nonzero">
            <path d="M570.037818,470.624727 C632.036363,511.258909 663.524363,567.602182 663.524364,639.677818 C663.524364,711.171636 633.037091,768.632 573.249455,810.872 C515.812364,850.668364 439.617455,870.636364 344.664727,870.636364 C248.548363,870.636364 172.330182,848.364364 117.243636,805.007273 C53.941818,754.598546 18.8,678.357091 11.748364,577.586182 L82.078545,577.586182 C90.293818,656.085091 117.243636,714.732364 164.138182,753.411636 C206.331637,787.413091 266.142546,805.007272 343.501091,805.007273 C417.345455,805.007273 477.133091,789.717091 522.840727,761.580364 C567.384727,732.326546 590.843636,692.460364 590.843636,643.215273 C590.843636,585.778182 561.52,541.234182 505.246545,509.583273 C486.907636,498.877818 454.60509,485.682182 407.989818,470.624727 L35.090909,470.624727 C15.811151,470.624726 0.181819471,454.995394 0.181819471,435.715636 C0.181819471,416.435878 15.811151,400.806546 35.090909,400.806545 L180.196364,400.806545 C157.342546,392.358545 140.237091,384.841454 128.996364,378.278545 C64.484364,341.949818 32.833455,289.190545 32.833455,221.234182 C32.833455,148.553455 62.157091,93.443637 123.131636,54.764364 C177.008,18.412364 247.338182,0.818182 331.748364,0.818182 C423.210182,0.818182 495.867637,23.090182 549.767273,67.634182 C604.877091,112.178182 636.528,177.807273 643.556364,264.591273 L572.039273,264.591273 C562.683637,198.962182 538.061091,149.717091 498.194909,115.715636 C458.328727,81.714181 402.078545,65.306909 329.397818,65.306909 C261.394909,65.306909 208.658909,77.036364 169.979636,100.448727 C125.435636,126.281454 104.350545,166.124363 104.350545,218.860364 C104.350545,265.778182 130.113454,302.083637 182.849455,330.220364 C207.518546,341.949819 261.39491,360.730909 343.477818,384.143273 C363.492363,389.868364 382.250182,395.407273 399.797818,400.806545 L640.181818,400.806545 C659.461576,400.806546 675.090908,416.435878 675.090908,435.715636 C675.090908,454.995394 659.461576,470.624726 640.181818,470.624727 L570.037818,470.624727 Z" id="Path"></path>
        </g>
    </g>
</svg>